{"title":"Beauty and the Beast 2012 S04E10 720p WEB-DL HEVC 2CH x265","uid":15552196,"size":333377776,"categoryP":"video","categoryS":"hd___tv_shows","magnet":"?xt=urn:btih:7441d270cdc873b8435fd9b57f28914c6dd82380&amp;dn=Beauty+and+the+Beast+2012+S04E10+720p+WEB-DL+HEVC+2CH+x265&amp;tr=udp%3A%2F%2Ftracker.leechers-paradise.org%3A6969&amp;tr=udp%3A%2F%2Fzer0day.ch%3A1337&amp;tr=udp%3A%2F%2Fopen.demonii.com%3A1337&amp;tr=udp%3A%2F%2Ftracker.coppersurfer.tk%3A6969&amp;tr=udp%3A%2F%2Fexodus.desync.com%3A6969","seeders":0,"leechers":1,"uploader":"nayhtut","files":1,"time":1471036170,"description":"[Screenshots]\r\n \nhttps://s9.postimg.org/zduqk1k9b/Beauty_and_the_Beast_2012_S04_E10_720p_WEB_DL_HEV.jpg \nhttps://s9.postimg.org/mcdn7xl8v/Beauty_and_the_Beast_2012_S04_E10_720p_WEB_DL_HEV.jpg \nhttps://s9.postimg.org/wnq00lcy7/Beauty_and_the_Beast_2012_S04_E10_720p_WEB_DL_HEV.jpgg\r\n\r\n   \r\nSource: Beauty and the Beast (2012) S04E10 1080p WEB-DL DD5 1 H 264-DRACULA (1.72 GB)\r\n\r\n\r\n__--__--__--__--__--__--__--__--__--__--__--__--__--\r\n\r\n\r\nComplete name                            : Beauty.and.the.Beast.2012.S04E10.720p.WEB-DL.HEVC.2CH.x265.mkv\r\nFormat                                   : Matroska\r\nFormat version                           : Version 4 / Version 2\r\nFile size                                : 318 MiB\r\nDuration                                 : 42mn 20s\r\nOverall bit rate                         : 1 050 Kbps\r\nWriting application                      : Lavf57.25.100\r\nWriting library                          : Lavf57.25.100\r\n\r\nVideo\r\n\r\nID                                       : 1\r\nFormat                                   : V_MPEGH/ISO/HEVC\r\nCodec ID                                 : V_MPEGH/ISO/HEVC\r\nDuration                                 : 42mn 20s\r\nBit rate                                 : 837 Kbps\r\nWidth                                    : 1 274 pixels\r\nHeight                                   : 720 pixels\r\nDisplay aspect ratio                     : 16:9\r\nFrame rate                               : 25.000 fps\r\nBits/(Pixel*Frame)                       : 0.037\r\nStream size                              : 253 MiB (80%)\r\nWriting library                          : Lavc57.48.101 libx265\r\nLanguage                                 : English\r\nDefault                                  : Yes\r\nForced                                   : No\r\nDURATION                                 : 00:42:20.211000000\r\nNUMBER_OF_FRAMES                         : 60903\r\nNUMBER_OF_BYTES                          : 1670161287\r\n_STATISTICS_WRITING_APP                  : mkvmerge v9.0.1 ('Obstacles') 64bit\r\n_STATISTICS_WRITING_DATE_UTC             : 2016-08-12 11:59:41\r\n_STATISTICS_TAGS                         : BPS DURATION NUMBER_OF_FRAMES NUMBER_OF_BYTES\r\n\r\nAudio\r\n\r\nID                                       : 2\r\nFormat                                   : AC-3\r\nFormat/Info                              : Audio Coding 3\r\nMode extension                           : CM (complete main)\r\nFormat settings, Endianness              : Big\r\nCodec ID                                 : A_AC3\r\nDuration                                 : 42mn 20s\r\nBit rate mode                            : Constant\r\nBit rate                                 : 192 Kbps\r\nChannel(s)                               : 2 channels\r\nChannel positions                        : Front: L R\r\nSampling rate                            : 48.0 KHz\r\nBit depth                                : 16 bits\r\nCompression mode                         : Lossy\r\nStream size                              : 58.1 MiB (18%)\r\nWriting library                          : Lavc57.24.102 ac3\r\nLanguage                                 : English\r\nDefault                                  : Yes\r\nForced                                   : No\r\nDURATION                                 : 00:42:20.223000000\r\nNUMBER_OF_FRAMES                         : 79380\r\nNUMBER_OF_BYTES                          : 121927680\r\n_STATISTICS_WRITING_APP                  : mkvmerge v9.0.1 ('Obstacles') 64bit\r\n_STATISTICS_WRITING_DATE_UTC             : 2016-08-12 11:59:41\r\n_STATISTICS_TAGS                         : BPS DURATION NUMBER_OF_FRAMES NUMBER_OF_BYTES\r\n\r\nText\r\n\r\nID                                       : 3\r\nFormat                                   : ASS\r\nCodec ID                                 : S_TEXT/ASS\r\nCodec ID/Info                            : Advanced Sub Station Alpha\r\nCompression mode                         : Lossless\r\nWriting library                          : Lavc57.48.101 ssa\r\nLanguage                                 : English\r\nDefault                                  : Yes\r\nForced                                   : No\r\nDURATION                                 : 00:41:51.292000000\r\nNUMBER_OF_FRAMES                         : 1046\r\nNUMBER_OF_BYTES                          : 41828\r\n_STATISTICS_WRITING_APP                  : mkvmerge v9.0.1 ('Obstacles') 64bit\r\n_STATISTICS_WRITING_DATE_UTC             : 2016-08-12 11:59:41\r\n_STATISTICS_TAGS                         : BPS DURATION NUMBER_OF_FRAMES NUMBER_OF_BYTES\r\n\r\n__--__--__--__--__--__--__--__--__--__--__--__--__--\r\n\r\n\r\nIMDb: http://www.imdb.com/title/tt2193041\r\n\r\nAfter adding torrent with magnet link,\r\n\r\nplease add this  following trackers list to the torrent for better seeds.\r\n\r\n\r\nudp://tracker.coppersurfer.tk:6969/announce\r\n\r\nudp://tracker.opentrackr.org:1337/announce\r\n \nhttp://tracker.baravik.org:6970/announce\r\n \nhttp://tracker2.wasabii.com.tw:6969/announce\r\n\r\nudp://9.rarbg.me:2710/announce\r\n\r\n\r\n__--__--__--__--__--__--__--__--__--__--__--__--__--\r\n\r\n\r\nEnjoy!","torrent":{"xt":"urn:btih:7441d270cdc873b8435fd9b57f28914c6dd82380","amp;dn":"Beauty+and+the+Beast+2012+S04E10+720p+WEB-DL+HEVC+2CH+x265","amp;tr":["udp%3A%2F%2Ftracker.leechers-paradise.org%3A6969","udp%3A%2F%2Fzer0day.ch%3A1337","udp%3A%2F%2Fopen.demonii.com%3A1337","udp%3A%2F%2Ftracker.coppersurfer.tk%3A6969","udp%3A%2F%2Fexodus.desync.com%3A6969"],"infoHash":"7441d270cdc873b8435fd9b57f28914c6dd82380","infoHashBuffer":{"type":"Buffer","data":[116,65,210,112,205,200,115,184,67,95,217,181,127,40,145,76,109,216,35,128]},"announce":[],"urlList":[]}}